<svg xmlns="http://www.w3.org/2000/svg" xmlns:xlink="http://www.w3.org/1999/xlink" viewBox="0,0,256,256" width="240px" height="240px"><g transform=""><g fill-opacity="0" fill="#ffffff" fill-rule="nonzero" stroke="none" stroke-width="1" stroke-linecap="butt" stroke-linejoin="miter" stroke-miterlimit="10" stroke-dasharray="" stroke-dashoffset="0" font-family="none" font-weight="none" font-size="none" text-anchor="none" style="mix-blend-mode: normal"><path d="M0,256v-256h256v256z" id="bgRectangle"></path></g><g fill="none" fill-rule="nonzero" stroke="none" stroke-width="1" stroke-linecap="butt" stroke-linejoin="miter" stroke-miterlimit="10" stroke-dasharray="" stroke-dashoffset="0" font-family="none" font-weight="none" font-size="none" text-anchor="none" style="mix-blend-mode: normal"><g transform="translate(3.2,-25.6) scale(5.33333,5.33333)"><path d="M21.906,31.772l2.601,-2.724l2.6,2.724v11.228h-5.201z" fill="#4d6e7e"></path><path d="M17.737,29.058l3.705,-0.675l0.503,3.732l-6.6,9.084l-4.207,-3.058z" fill="#f50057"></path><path d="M15.962,24.409l3.393,1.632l-1.786,3.315l-10.679,3.469l-1.607,-4.946z" fill="#d500f9"></path><path d="M17.256,19.607l1.786,3.315l-3.393,1.632l-10.679,-3.47l1.607,-4.947z" fill="#29b6f6"></path><path d="M21.126,16.482l-0.503,3.732l-3.705,-0.675l-6.6,-9.084l4.208,-3.057z" fill="#07f4e8"></path><path d="M26.094,16.228l-2.601,2.724l-2.6,-2.724v-11.228h5.201z" fill="#4d6e7e"></path><path d="M30.262,18.943l-3.704,0.675l-0.503,-3.732l6.599,-9.084l4.208,3.057z" fill="#f50057"></path><path d="M32.039,23.59l-3.394,-1.632l1.786,-3.315l10.679,-3.469l1.607,4.946z" fill="#d500f9"></path><path d="M30.744,28.393l-1.786,-3.315l3.393,-1.631l10.679,3.469l-1.607,4.947z" fill="#29b6f6"></path><path d="M26.874,31.518l0.504,-3.732l3.704,0.675l6.6,9.084l-4.208,3.057z" fill="#07f4e8"></path></g></g><g fill="#000000" fill-rule="nonzero" stroke="none" stroke-width="1" stroke-linecap="butt" stroke-linejoin="miter" stroke-miterlimit="10" stroke-dasharray="" stroke-dashoffset="0" font-family="none" font-weight="none" font-size="none" text-anchor="none" style="mix-blend-mode: normal"><g><path d="M97.59099,208.17833h4.67v3.64l-4.67,0.8v25.72c0,3.72667 -1.18,6.68333 -3.54,8.87c-2.36,2.18667 -5.42,3.28 -9.18,3.28v0c-4.01333,0 -7.20333,-1.01667 -9.57,-3.05c-2.36667,-2.03333 -3.50333,-4.99 -3.41,-8.87v0l0.06,-0.17h5.41c0,2.58 0.65667,4.50333 1.97,5.77c1.30667,1.27333 3.15333,1.91 5.54,1.91v0c2.08,0 3.78,-0.70333 5.1,-2.11c1.32,-1.4 1.98,-3.27667 1.98,-5.63v0v-25.72l-4.67,-0.8v-3.64zM117.96099,208.17833v3.64l-4.24,0.66l5.35,22.97l0.78,5.21l0.17,0.03l1.12,-5.24l7.67,-27.27h4.99l7.7,27.27l1.15,5.36h0.17l0.83,-5.36l5.24,-22.97l-4.26,-0.66v-3.64h13.26v3.64l-3.35,0.43l-9.08,37.64h-5.05l-8.25,-28.94l-0.74,-3.75h-0.17l-0.72,3.75l-8.36,28.94h-5.02l-9.08,-37.64l-3.35,-0.43v-3.64zM160.12099,208.17833h34.66v9.22h-4.81l-0.43,-4.78h-9.25v32.86l4.67,0.8v3.61h-14.98v-3.61l4.67,-0.8v-32.86h-9.29l-0.4,4.78h-4.84z"></path></g></g></g></svg>