<svg xmlns="http://www.w3.org/2000/svg" xmlns:xlink="http://www.w3.org/1999/xlink" viewBox="0,0,256,256" width="240px" height="240px"><g transform="translate(15.36,15.36) scale(0.88,0.88)"><g fill="none" fill-rule="nonzero" stroke="none" stroke-width="1" stroke-linecap="butt" stroke-linejoin="miter" stroke-miterlimit="10" stroke-dasharray="" stroke-dashoffset="0" font-family="none" font-weight="none" font-size="none" text-anchor="none" style="mix-blend-mode: normal"><g transform="translate(4.09131,-20.1664) scale(6.4,6.4)"><path d="M11.588,9.124c0,0 9.555,2.353 11.45,2.638c2.832,0.427 5.912,2.523 4.24,6.633c-1.567,3.85 -8.663,2.289 -11.818,-1.343c-3.155,-3.632 -3.872,-7.928 -3.872,-7.928z" fill="#171513"></path><path d="M1.391,25.922c0,0 8.99,-2.648 12.655,-7.899c3.665,-5.251 7.302,-13.617 16.724,-11.085c1.675,0.45 6.117,2.32 5.278,11.283c-0.824,8.796 -8.042,15.342 -16.76,15.342c-8.718,0 -15.421,-4.669 -17.897,-7.641z" fill="#171513"></path><path d="M19.287,34.063c-9.305,0 -16.026,-5.116 -18.281,-7.82c-0.107,-0.129 -0.143,-0.304 -0.094,-0.465c0.049,-0.161 0.176,-0.287 0.337,-0.334c0.088,-0.026 8.866,-2.662 12.387,-7.705c0.5,-0.716 0.999,-1.49 1.512,-2.286c3.239,-5.023 7.268,-11.275 15.751,-8.997c1.98,0.532 6.495,2.749 5.646,11.813c-0.844,9.003 -8.263,15.794 -17.258,15.794zM2.277,26.163c2.542,2.666 8.688,6.9 17.01,6.9c8.476,0 15.467,-6.401 16.262,-14.889c0.75,-8.007 -2.754,-10.174 -4.909,-10.754c-7.772,-2.086 -11.428,3.575 -14.651,8.573c-0.521,0.807 -1.026,1.591 -1.532,2.316c-3.142,4.499 -9.913,7.087 -12.18,7.854z" fill="#4b3b2e"></path><path d="M18.149,12.043c0,0 7.768,5.834 17.952,6.027c0,0 0.387,-4.706 -1.031,-7.735c0,0 -6.027,0.064 -13.569,-1.676c0,0 -1.229,0.833 -1.547,1.16c-0.505,0.519 -1.805,2.224 -1.805,2.224z" fill="#d01313"></path><ellipse cx="-7.5414" cy="33.69293" transform="rotate(-79.444)" rx="2.36" ry="2.746" fill="#dee4ea"></ellipse><path d="M6.313,12.516c0,0 5.325,1.429 10.225,1.881c2.697,0.248 5.866,2.192 4.706,5.801c-1.272,3.957 -7.349,3.545 -10.829,-0.193c-3.28,-3.521 -4.102,-7.489 -4.102,-7.489z" fill="#171513"></path><path d="M18.103,22.365c0.942,-0.21 2.17,-0.783 2.664,-2.32c0.375,-1.169 0.275,-2.202 -0.298,-3.069c-0.705,-1.067 -2.177,-1.857 -3.785,-2.054c-0.235,0.359 -0.467,0.717 -0.696,1.072c-0.521,0.807 -1.026,1.591 -1.532,2.316c-0.644,0.923 -1.445,1.76 -2.325,2.523c1.844,1.323 4.112,1.946 5.972,1.532z" fill="none"></path><path d="M13.636,17.737c0.5,-0.716 0.999,-1.49 1.512,-2.286c0.139,-0.216 0.285,-0.438 0.427,-0.657c-3.461,-0.396 -6.984,-1.198 -8.552,-1.582c0.414,1.307 1.477,4.004 3.755,6.452c0.175,0.188 0.366,0.357 0.556,0.529c0.88,-0.744 1.676,-1.56 2.302,-2.456z" fill="none"></path><path d="M21.303,16.424c0.739,1.117 0.882,2.475 0.416,3.926c-0.499,1.551 -1.706,2.613 -3.399,2.991c-0.45,0.101 -0.921,0.149 -1.404,0.149c-1.87,0 -3.907,-0.738 -5.583,-2.002c-3.301,2.562 -7.392,4.112 -9.056,4.674c2.542,2.666 8.688,6.9 17.01,6.9c8.476,0 15.467,-6.401 16.262,-14.889c0.75,-8.006 -2.754,-10.173 -4.909,-10.753c-6.749,-1.811 -10.393,2.219 -13.346,6.583c1.439,0.278 3.081,1.018 4.009,2.421z" fill="none"></path><path d="M27.69,14.037c0.725,1.274 0.743,2.846 0.05,4.547c-0.544,1.336 -1.695,2.187 -3.33,2.458c-0.37,0.062 -0.756,0.091 -1.153,0.091c-0.574,0 -1.172,-0.077 -1.775,-0.194c-0.592,1.231 -1.693,2.076 -3.163,2.403c-0.45,0.101 -0.921,0.149 -1.404,0.149c-1.87,0 -3.907,-0.738 -5.583,-2.002c-3.301,2.562 -7.392,4.112 -9.056,4.674c2.542,2.666 8.688,6.9 17.01,6.9c8.476,0 15.467,-6.401 16.262,-14.889c0.751,-8.007 -2.753,-10.174 -4.908,-10.754c-4.894,-1.313 -8.152,0.45 -10.701,3.18c1.425,0.325 2.631,0.585 3.174,0.667c2.056,0.311 3.767,1.346 4.577,2.77z" fill="none"></path><path d="M18.133,11.211c-2.259,-0.528 -4.665,-1.112 -5.878,-1.409c0.212,0.814 0.654,2.2 1.444,3.731c0.822,0.126 1.663,0.239 2.495,0.324c0.599,-0.897 1.251,-1.786 1.939,-2.646z" fill="none"></path><path d="M15.082,17.381c-0.841,-0.968 -1.509,-1.975 -2.043,-2.941c-2.54,-0.411 -4.833,-0.938 -6.015,-1.228c0.414,1.307 1.477,4.004 3.755,6.452c0.175,0.188 0.366,0.357 0.556,0.529c0.254,0.229 0.52,0.442 0.796,0.64c1.844,1.323 4.112,1.946 5.971,1.533c0.794,-0.177 1.786,-0.62 2.376,-1.672c-2.048,-0.6 -4.062,-1.778 -5.396,-3.313z" fill="none"></path><path d="M21.303,16.424c0.676,1.022 0.847,2.246 0.516,3.558c0.853,0.154 1.685,0.195 2.429,0.073c0.888,-0.147 2.054,-0.588 2.567,-1.848c0.58,-1.427 0.583,-2.663 0.006,-3.676c-0.66,-1.159 -2.102,-2.01 -3.858,-2.274c-0.637,-0.096 -2.103,-0.417 -3.779,-0.802c-0.671,0.807 -1.296,1.67 -1.891,2.549c1.44,0.277 3.082,1.017 4.01,2.42z" fill="none"></path><path d="M20.831,19.759c0.271,-1.049 0.163,-1.989 -0.363,-2.783c-0.705,-1.067 -2.177,-1.857 -3.785,-2.054c-0.065,-0.008 -0.128,-0.021 -0.193,-0.027c-0.303,-0.028 -0.61,-0.065 -0.916,-0.1c-0.42,-0.048 -0.842,-0.102 -1.26,-0.161c0.428,0.7 0.928,1.409 1.522,2.092c1.214,1.396 3.102,2.492 4.995,3.033z" fill="none"></path><path d="M36.64,16.299l2.391,-0.948l-2.469,-0.905c-0.557,-5.891 -3.999,-7.545 -5.663,-7.992c-4.702,-1.263 -8.123,0.03 -10.712,2.346c0.044,-1.236 0.07,-3.234 0.035,-4.043c-0.089,-2.057 -1.582,-2.489 -3.645,-2.58c-0.651,-0.029 -1.342,-1.048 -1.575,-1.538l-1.66,0.78c0.12,0.256 1.227,2.505 3.154,2.59c1.795,0.079 1.937,0.173 2.249,1.064c0.089,0.263 0.019,1.195 0.017,2.288c-0.305,-0.435 -0.677,-0.878 -1.138,-1.296c-1.854,-1.675 -4.228,-1.345 -6.521,-1.024l-0.787,0.109c-1.72,0.22 -2.268,-1.167 -2.326,-1.327l-0.865,0.302l-0.868,0.294c0.348,1.029 1.69,2.882 4.295,2.549l0.805,-0.11c2.134,-0.298 3.82,-0.533 5.038,0.568c1.122,1.014 1.581,2.241 1.735,2.755c-3.079,-0.722 -6.366,-1.53 -6.422,-1.544c-0.162,-0.04 -0.335,0.004 -0.459,0.119c-0.124,0.114 -0.181,0.283 -0.153,0.449c0.019,0.115 0.331,1.896 1.378,4.127c-3.288,-0.572 -5.993,-1.29 -6.031,-1.3c-0.166,-0.047 -0.346,0 -0.473,0.119c-0.126,0.119 -0.182,0.295 -0.146,0.465c0.035,0.167 0.89,4.146 4.225,7.728c0.156,0.168 0.326,0.321 0.494,0.478c-4.006,3.025 -9.224,4.599 -9.292,4.62c-0.161,0.047 -0.288,0.173 -0.337,0.334c-0.049,0.161 -0.013,0.336 0.094,0.465c2.254,2.705 8.751,7.766 18.056,7.766c8.995,0 16.639,-6.736 17.483,-15.741c0.009,-0.094 0.009,-0.175 0.016,-0.267l1.966,-0.534l-1.887,-1.047c0,-0.041 -0.002,-0.078 -0.002,-0.119zM12.255,9.802c1.214,0.297 3.62,0.881 5.878,1.409c-0.688,0.86 -1.34,1.749 -1.94,2.647c-0.832,-0.085 -1.673,-0.198 -2.495,-0.324c-0.789,-1.531 -1.231,-2.918 -1.443,-3.732zM7.024,13.212c1.182,0.29 3.475,0.817 6.015,1.228c0.42,0.068 0.846,0.133 1.276,0.193c0.419,0.059 0.84,0.113 1.26,0.161c0.306,0.035 0.612,0.072 0.916,0.1c0.065,0.006 0.128,0.019 0.193,0.027c1.608,0.197 3.08,0.988 3.785,2.054c0.525,0.795 0.633,1.734 0.363,2.783c-0.025,0.096 -0.033,0.188 -0.065,0.286c-0.078,0.242 -0.178,0.452 -0.288,0.648c-0.59,1.053 -1.581,1.495 -2.376,1.672c-1.859,0.414 -4.127,-0.21 -5.971,-1.533c-0.276,-0.198 -0.542,-0.411 -0.796,-0.64c-0.19,-0.171 -0.382,-0.341 -0.556,-0.529c-2.279,-2.446 -3.342,-5.143 -3.756,-6.45zM35.549,18.174c-0.795,8.488 -7.941,14.814 -16.417,14.814c-8.322,0 -14.314,-4.16 -16.856,-6.826c1.665,-0.563 5.755,-2.112 9.056,-4.674c1.676,1.264 3.712,2.002 5.583,2.002c0.482,0 0.954,-0.048 1.404,-0.149c1.47,-0.328 2.571,-1.172 3.163,-2.403c0.09,-0.188 0.17,-0.383 0.236,-0.588c0.04,-0.124 0.069,-0.246 0.1,-0.368c0.331,-1.312 0.16,-2.536 -0.516,-3.558c-0.928,-1.404 -2.57,-2.144 -4.009,-2.421c0.595,-0.879 1.22,-1.742 1.891,-2.549c0.244,-0.294 0.496,-0.578 0.754,-0.854c2.549,-2.73 5.807,-4.494 10.701,-3.18c1.386,0.372 3.324,1.412 4.336,4.228l-4.392,-1.949l-0.744,1.676l2.103,0.933c-0.471,0.17 -0.831,0.541 -0.921,1.023c-0.143,0.766 0.449,1.52 1.323,1.682c0.873,0.163 1.697,-0.327 1.84,-1.093c0.041,-0.22 0.016,-0.437 -0.054,-0.642l0.576,0.255l0.506,-1.139c0.397,1.473 0.564,3.355 0.337,5.78z" fill="#4b3b2e"></path><circle cx="33.484" cy="13.52" r="0.5" fill="#dee4ea"></circle></g></g><g fill="#000000" fill-rule="nonzero" stroke="none" stroke-width="1" stroke-linecap="butt" stroke-linejoin="miter" stroke-miterlimit="10" stroke-dasharray="" stroke-dashoffset="0" font-family="none" font-weight="none" font-size="none" text-anchor="none" style="mix-blend-mode: normal"><g><path d="M59.52,237.625l0.6,-18.44l-0.16,-0.03l-14.72,36.47h-4.09l-14.72,-36.44l-0.16,0.03l0.63,18.41v13.19l5.09,0.87v3.94h-16.34v-3.94l5.09,-0.87v-35.85l-5.09,-0.87v-3.97h5.09h7.88l14.5,36.97h0.19l14.46,-36.97h13v3.97l-5.09,0.87v35.85l5.09,0.87v3.94h-16.34v-3.94l5.09,-0.87zM107.87,221.815v3.97l-3.03,0.47l-12.88,34.56c-0.85333,2.26667 -2.08333,4.24667 -3.69,5.94c-1.6,1.68667 -3.75333,2.53 -6.46,2.53v0c-0.48,0 -1.10667,-0.06 -1.88,-0.18c-0.77333,-0.11333 -1.36667,-0.22 -1.78,-0.32v0l0.62,-4.85c-0.12,-0.02 0.25,0.00333 1.11,0.07c0.86667,0.06 1.41333,0.09 1.64,0.09v0c1.31333,0 2.37667,-0.56667 3.19,-1.7c0.81333,-1.14 1.52333,-2.45 2.13,-3.93v0l1.47,-3.5l-11.16,-28.68l-3.09,-0.5v-3.97h13.65v3.97l-3.81,0.62l5.84,16.69l1.13,4.31h0.19l7.03,-21l-3.85,-0.62v-3.97zM142.99,239.345v0.66c0,4.87333 -1.17,8.80333 -3.51,11.79c-2.34667,2.99333 -5.57,4.49 -9.67,4.49v0c-2.21333,0 -4.13,-0.42333 -5.75,-1.27c-1.62667,-0.84 -2.98333,-2.08333 -4.07,-3.73v0l-0.56,4.34h-5.31v-43.91l-5.1,-0.87v-3.97h11.25v18.94c1.06667,-1.5 2.38667,-2.64667 3.96,-3.44c1.57333,-0.79333 3.41,-1.19 5.51,-1.19v0c4.16667,0 7.41667,1.66667 9.75,5c2.33333,3.33333 3.5,7.72 3.5,13.16zM136.81,240.005v-0.66c0,-3.89333 -0.71,-7.06 -2.13,-9.5c-1.41333,-2.44 -3.58,-3.66 -6.5,-3.66v0c-1.89333,0 -3.49333,0.46 -4.8,1.38c-1.3,0.91333 -2.33667,2.14333 -3.11,3.69v0v14.93c0.77333,1.56667 1.82,2.80667 3.14,3.72c1.32667,0.92 2.93667,1.38 4.83,1.38v0c2.9,0 5.05333,-1.03333 6.46,-3.1c1.40667,-2.06 2.11,-4.78667 2.11,-8.18zM179.24,255.625h-8.06c-0.18667,-0.91333 -0.33333,-1.73667 -0.44,-2.47c-0.1,-0.72667 -0.17333,-1.45667 -0.22,-2.19v0c-1.18667,1.52667 -2.67,2.79333 -4.45,3.8c-1.78,1.01333 -3.68,1.52 -5.7,1.52v0c-3.52,0 -6.19667,-0.86 -8.03,-2.58c-1.83333,-1.72 -2.75,-4.14333 -2.75,-7.27v0c0,-3.20667 1.29667,-5.68 3.89,-7.42c2.59333,-1.74 6.15,-2.61 10.67,-2.61v0h6.34v-3.94c0,-1.97333 -0.62333,-3.54 -1.87,-4.7c-1.25333,-1.15333 -2.99333,-1.73 -5.22,-1.73v0c-1.54,0 -2.9,0.19667 -4.08,0.59c-1.17333,0.39333 -2.12667,0.93667 -2.86,1.63v0l-0.65,3.56h-4.75v-6.56c1.54,-1.23333 3.40333,-2.22 5.59,-2.96c2.18667,-0.74 4.56,-1.11 7.12,-1.11v0c3.83333,0 6.94,0.98 9.32,2.94c2.37333,1.96 3.56,4.76333 3.56,8.41v0v16.28c0,0.43333 0.00333,0.86 0.01,1.28c0.01333,0.41333 0.04,0.83 0.08,1.25v0l2.5,0.34zM161.27,251.125v0c2.04667,0 3.91333,-0.49 5.6,-1.47c1.68667,-0.98 2.89333,-2.15667 3.62,-3.53v0v-5.56h-6.56c-2.52,0 -4.51333,0.58333 -5.98,1.75c-1.47333,1.16667 -2.21,2.58333 -2.21,4.25v0c0,1.48 0.46,2.61 1.38,3.39c0.91333,0.78 2.29667,1.17 4.15,1.17zM188.96,213.655h6.16v8.16h6.4v4.56h-6.4v20.53c0,1.58667 0.32667,2.70333 0.98,3.35c0.66,0.64 1.53,0.96 2.61,0.96v0c0.54,0 1.15,-0.04667 1.83,-0.14c0.68,-0.09333 1.24667,-0.19 1.7,-0.29v0l0.85,4.22c-0.58667,0.37333 -1.44333,0.68 -2.57,0.92c-1.12,0.24 -2.24333,0.36 -3.37,0.36v0c-2.5,0 -4.49,-0.75667 -5.97,-2.27c-1.48,-1.50667 -2.22,-3.87667 -2.22,-7.11v0v-20.53h-5.34v-4.56h5.34zM207.81,255.625v-3.94l5.09,-0.87v-24.16l-5.09,-0.87v-3.97h11.25v29l5.09,0.87v3.94zM219.06,206.875v6.28h-6.16v-6.28zM254.4,224.965l0.31,7.47h-4.62l-1,-4.06c-0.75333,-0.70667 -1.69667,-1.27333 -2.83,-1.7c-1.13333,-0.42667 -2.42,-0.64 -3.86,-0.64v0c-2.18667,0 -3.81333,0.47667 -4.88,1.43c-1.06,0.96 -1.59,2.11667 -1.59,3.47v0c0,1.33333 0.47,2.38667 1.41,3.16c0.93333,0.77333 2.84,1.46 5.72,2.06v0c4.26667,0.92 7.44333,2.16667 9.53,3.74c2.08,1.57333 3.12,3.68 3.12,6.32v0c0,3 -1.21333,5.43 -3.64,7.29c-2.42667,1.85333 -5.59667,2.78 -9.51,2.78v0c-2.56667,0 -4.87,-0.29667 -6.91,-0.89c-2.04,-0.59333 -3.86333,-1.45333 -5.47,-2.58v0l-0.03,-7.72h4.62l1.16,4.53c0.70667,0.64667 1.67,1.11667 2.89,1.41c1.22,0.28667 2.46667,0.43 3.74,0.43v0c2.18667,0 3.9,-0.44 5.14,-1.32c1.24,-0.88667 1.86,-2.05 1.86,-3.49v0c0,-1.35333 -0.51667,-2.46667 -1.55,-3.34c-1.03333,-0.87333 -2.98667,-1.63333 -5.86,-2.28v0c-4.10667,-0.9 -7.2,-2.12 -9.28,-3.66c-2.08667,-1.54 -3.13,-3.62333 -3.13,-6.25v0c0,-2.74667 1.17333,-5.09 3.52,-7.03c2.34,-1.94 5.38667,-2.91 9.14,-2.91v0c2.56,0 4.86333,0.33333 6.91,1c2.04,0.66667 3.73667,1.59333 5.09,2.78z"></path></g></g></g></svg>